C:\Users\r0593348\3dpredictsim\Results\Batchsim_tmt_linear_v2\Pog_s1_tmt_aCst_d02_k250_ig24_act_GRF.mot
nRows=17
nColumns=19

name C:\Users\r0593348\3dpredictsim\Results\Batchsim_tmt_linear_v2\Pog_s1_tmt_aCst_d02_k250_ig24_act_GRF.mot
datacolumns 19
datarows 17
range 0.5898048070 0.7785423453
endheader
time 	ground_force_vx	ground_force_vy	ground_force_vz	ground_force_px	ground_force_py	ground_force_pz	1_ground_force_vx	1_ground_force_vy	1_ground_force_vz	1_ground_force_px	1_ground_force_py	1_ground_force_pz	ground_torque_x	ground_torque_y	ground_torque_z	1_ground_torque_x	1_ground_torque_y	1_ground_torque_z
        0.5898048070	       26.4168641939	      277.1764359842	        0.8305814287	        0.4054280482	        0.0000000000	        0.0456308912	      -73.4893004119	       64.1333361003	      -12.5592820923	        0.9006887356	        0.0000000000	       -0.0426671803	        0.0000000000	        0.0000000000	        0.0000000000	        0.0000000000	        0.0000000000	        0.0000000000	
        0.6016009032	       26.0447204980	      248.9874418647	        6.9692746320	        0.4075101221	        0.0000000000	        0.0456319011	     -106.4190774165	      181.6827980782	      -44.5693814551	        0.9068484255	        0.0000000000	       -0.0421523754	        0.0000000000	        0.0000000000	        0.0000000000	        0.0000000000	        0.0000000000	        0.0000000000	
        0.6133969993	       28.2916072518	      216.0842217419	        7.8592928400	        0.4078510769	        0.0000000000	        0.0456991493	      -68.5654968080	      397.0129287523	      -10.7673073958	        0.9122781172	        0.0000000000	       -0.0417188840	        0.0000000000	        0.0000000000	        0.0000000000	        0.0000000000	        0.0000000000	        0.0000000000	
        0.6251930954	       28.6822496714	      173.2010413640	       11.1520481783	        0.4082722755	        0.0000000000	        0.0459892803	      -92.4222227893	      692.3393689216	        7.4092058464	        0.9230019557	        0.0000000000	       -0.0452800421	        0.0000000000	        0.0000000000	        0.0000000000	        0.0000000000	        0.0000000000	        0.0000000000	
        0.6369891916	       19.8846498880	      124.5958407173	       14.6201903144	        0.4082230722	        0.0000000000	        0.0464485949	     -134.2527338840	      904.2377089210	       16.6640092919	        0.9320862812	        0.0000000000	       -0.0485612671	        0.0000000000	        0.0000000000	        0.0000000000	        0.0000000000	        0.0000000000	        0.0000000000	
        0.6487852877	        3.9728418482	       62.4175202550	       12.6925583011	        0.4074713053	        0.0000000000	        0.0470099543	     -146.6940565723	      951.8091601295	       19.1164519812	        0.9376610447	        0.0000000000	       -0.0503479833	        0.0000000000	        0.0000000000	        0.0000000000	        0.0000000000	        0.0000000000	        0.0000000000	
        0.6605813839	      -12.6680982833	       14.8110748533	        4.1415107004	        0.4007423757	        0.0000000000	        0.0470000152	     -134.1361999943	      915.4587537539	       20.3529255246	        0.9422647325	        0.0000000000	       -0.0514548437	        0.0000000000	        0.0000000000	        0.0000000000	        0.0000000000	        0.0000000000	        0.0000000000	
        0.6723774800	      -17.0679785498	       14.1686308495	        0.0531402967	        0.4073249308	        0.0000000000	        0.0445562974	     -118.8612896037	      868.3553102143	       18.0454265762	        0.9474044935	        0.0000000000	       -0.0523862899	        0.0000000000	        0.0000000000	        0.0000000000	        0.0000000000	        0.0000000000	        0.0000000000	
        0.6841735761	      -20.5125079996	       14.6236722508	       -0.2139430762	        0.4213997690	        0.0000000000	        0.0449753985	     -111.7499005213	      843.2617296737	       18.0611161410	        0.9547744132	        0.0000000000	       -0.0531084015	        0.0000000000	        0.0000000000	        0.0000000000	        0.0000000000	        0.0000000000	        0.0000000000	
        0.6959696723	      -20.5401242135	       12.9731277867	       -0.3449097011	        0.4400333092	        0.0000000000	        0.0455089204	     -101.5281644288	      805.5534009640	       17.0363884879	        0.9624011754	        0.0000000000	       -0.0535535911	        0.0000000000	        0.0000000000	        0.0000000000	        0.0000000000	        0.0000000000	        0.0000000000	
        0.7077657684	      -18.0390397407	       10.3128397104	       -0.4448331815	        0.4625562165	        0.0000000000	        0.0461489852	      -92.9153302999	      763.7365337080	       16.5887005531	        0.9699541169	        0.0000000000	       -0.0539083127	        0.0000000000	        0.0000000000	        0.0000000000	        0.0000000000	        0.0000000000	        0.0000000000	
        0.7195618646	      -13.0439426732	        6.8672522030	       -0.4060047436	        0.0000000000	        0.0000000000	        0.0000000000	      -83.8653566224	      729.8347809458	       16.6757725286	        0.9769161011	        0.0000000000	       -0.0542040734	        0.0000000000	        0.0000000000	        0.0000000000	        0.0000000000	        0.0000000000	        0.0000000000	
        0.7313579607	       -8.0151827448	        3.9982913870	       -0.2188360125	        0.0000000000	        0.0000000000	        0.0000000000	      -75.7355703964	      702.8932547217	       16.5579467330	        0.9832693921	        0.0000000000	       -0.0544764338	        0.0000000000	        0.0000000000	        0.0000000000	        0.0000000000	        0.0000000000	        0.0000000000	
        0.7431540568	       -5.2372863687	        2.5066406980	       -0.1201042827	        0.0000000000	        0.0000000000	        0.0000000000	      -68.2986374385	      681.9476225051	       16.5233453568	        0.9890617716	        0.0000000000	       -0.0546891794	        0.0000000000	        0.0000000000	        0.0000000000	        0.0000000000	        0.0000000000	        0.0000000000	
        0.7549501530	       -3.7481058329	        1.7396119835	       -0.0625594071	        0.0000000000	        0.0000000000	        0.0000000000	      -61.2946692790	      665.1752476341	       17.0704772439	        0.9944447720	        0.0000000000	       -0.0548137832	        0.0000000000	        0.0000000000	        0.0000000000	        0.0000000000	        0.0000000000	        0.0000000000	
        0.7667462491	       -2.5746422503	        1.1666209215	       -0.0272872743	        0.0000000000	        0.0000000000	        0.0000000000	      -54.7569945718	      650.5755939590	       17.9681392179	        0.9994798031	        0.0000000000	       -0.0548559307	        0.0000000000	        0.0000000000	        0.0000000000	        0.0000000000	        0.0000000000	        0.0000000000	
        0.7785423453	       -1.7039385374	        0.7586141163	       -0.0073805203	        0.0000000000	        0.0000000000	        0.0000000000	      -48.5966223369	      636.9547909856	       18.7573540704	        1.0041673031	        0.0000000000	       -0.0548396714	        0.0000000000	        0.0000000000	        0.0000000000	        0.0000000000	        0.0000000000	        0.0000000000	
